<svg width="400" height="300" viewBox="0 0 400 300" xmlns="http://www.w3.org/2000/svg">
  <!-- Background with soft gradient -->
  <defs>
    <linearGradient id="botanicalGrad" x1="0%" y1="0%" x2="0%" y2="100%">
      <stop offset="0%" style="stop-color:#F8FAF5"/>
      <stop offset="100%" style="stop-color:#EDF4E8"/>
    </linearGradient>
  </defs>
  <rect width="400" height="300" fill="url(#botanicalGrad)"/>

  <!-- Arch shape container -->
  <path d="M60 280 L60 120 Q60 40 200 40 Q340 40 340 120 L340 280 Z" fill="#FFFFFF" stroke="#7D9D74" stroke-width="2"/>

  <!-- Eucalyptus decorations - top left -->
  <g transform="translate(40, 30)" opacity="0.7">
    <ellipse cx="15" cy="8" rx="12" ry="6" fill="#8BAF7D" transform="rotate(-45 15 8)"/>
    <ellipse cx="25" cy="18" rx="10" ry="5" fill="#7D9D74" transform="rotate(-30 25 18)"/>
    <ellipse cx="10" cy="22" rx="8" ry="4" fill="#9DBF8F" transform="rotate(-60 10 22)"/>
  </g>

  <!-- Eucalyptus decorations - top right -->
  <g transform="translate(320, 30)" opacity="0.7">
    <ellipse cx="15" cy="8" rx="12" ry="6" fill="#8BAF7D" transform="rotate(45 15 8)"/>
    <ellipse cx="5" cy="18" rx="10" ry="5" fill="#7D9D74" transform="rotate(30 5 18)"/>
    <ellipse cx="20" cy="22" rx="8" ry="4" fill="#9DBF8F" transform="rotate(60 20 22)"/>
  </g>

  <!-- Title area -->
  <text x="200" y="80" font-family="Georgia, serif" font-size="12" fill="#7D9D74" text-anchor="middle" letter-spacing="3">ПОЗИВНИЦА</text>
  <text x="200" y="115" font-family="Georgia, serif" font-size="32" fill="#5A7A52" text-anchor="middle" font-style="italic">Име & Име</text>

  <!-- Decorative leaf divider -->
  <line x1="130" y1="140" x2="170" y2="140" stroke="#7D9D74" stroke-width="1"/>
  <text x="200" y="145" font-size="16" fill="#7D9D74" text-anchor="middle">🌿</text>
  <line x1="230" y1="140" x2="270" y2="140" stroke="#7D9D74" stroke-width="1"/>

  <!-- Content placeholder lines -->
  <rect x="100" y="165" width="200" height="8" fill="#E8EFE5" rx="4"/>
  <rect x="120" y="185" width="160" height="8" fill="#E8EFE5" rx="4"/>
  <rect x="140" y="205" width="120" height="8" fill="#E8EFE5" rx="4"/>

  <!-- Bottom eucalyptus accent -->
  <g transform="translate(160, 235)" opacity="0.6">
    <ellipse cx="20" cy="5" rx="15" ry="6" fill="#8BAF7D" transform="rotate(-15 20 5)"/>
    <ellipse cx="40" cy="5" rx="15" ry="6" fill="#7D9D74"/>
    <ellipse cx="60" cy="5" rx="15" ry="6" fill="#8BAF7D" transform="rotate(15 60 5)"/>
  </g>

  <!-- Theme label -->
  <rect x="0" y="270" width="400" height="30" fill="#5A7A52"/>
  <text x="200" y="290" font-family="Georgia, serif" font-size="14" fill="#FFFFFF" text-anchor="middle">БОТАНИЧКИ</text>
</svg>
